<svg xmlns="http://www.w3.org/2000/svg" xmlns:xlink="http://www.w3.org/1999/xlink"><defs><symbol viewBox="0 0 37 25" fill="none" id="advcash"><path opacity=".3" fill-rule="evenodd" clip-rule="evenodd" d="M2 .06a2 2 0 00-2 2v20a2 2 0 002 2h33a2 2 0 002-2v-20a2 2 0 00-2-2H2zm9.213 20.117l1.97-4.307h-.045l-1.558-2.124h2.575l.852-1.862h-4.7L8.75 9.76h7.228l2.67-5.834 2.666 5.834h6.936l-1.592 2.124h-4.373l.85 1.862h2.568l-1.594 2.123h-.002l1.976 4.324H23.25l-1.898-4.324h-5.419l-1.89 4.308h-2.83zm9.208-6.431h-3.555l.817-1.862h1.921l.817 1.862zM18.672 9.76h-.057l.029-.065.028.065z" fill="#fff"/></symbol><symbol viewBox="0 0 120 41" fill="none" id="app-store"><path d="M0 12.034c0-3.92 0-5.88.763-7.378a7 7 0 013.06-3.06C5.318.835 7.28.835 11.2.835h97.6c3.92 0 5.881 0 7.378.763a7 7 0 013.059 3.059c.763 1.497.763 3.458.763 7.378v17.6c0 3.92 0 5.88-.763 7.378a7 7 0 01-3.059 3.059c-1.497.763-3.458.763-7.378.763H11.2c-3.92 0-5.88 0-7.378-.763a7 7 0 01-3.059-3.06C0 35.515 0 33.555 0 29.635v-17.6z" fill="#fff"/><path d="M81.526 20.035v2.291H80.09v1.503h1.436v5.105c0 1.743.788 2.44 2.772 2.44.349 0 .68-.041.971-.091v-1.486c-.249.025-.406.042-.68.042-.888 0-1.279-.415-1.279-1.362V23.83h1.96v-1.503h-1.96v-2.29h-1.784zm8.797 11.464c2.64 0 4.259-1.768 4.259-4.698 0-2.914-1.627-4.69-4.259-4.69-2.64 0-4.266 1.776-4.266 4.69 0 2.93 1.618 4.698 4.266 4.698zm0-1.586c-1.552 0-2.424-1.137-2.424-3.113 0-1.959.872-3.104 2.424-3.104 1.544 0 2.424 1.145 2.424 3.104 0 1.968-.88 3.113-2.424 3.113zm5.643 1.411h1.785v-5.337c0-1.27.955-2.125 2.308-2.125.315 0 .846.058.996.108v-1.76c-.191-.05-.531-.075-.797-.075-1.179 0-2.183.648-2.44 1.536h-.133v-1.386h-1.719v9.04zm9.52-7.694c1.32 0 2.183.921 2.225 2.34h-4.566c.1-1.41 1.021-2.34 2.341-2.34zm2.216 5.254c-.332.706-1.07 1.096-2.15 1.096-1.427 0-2.349-1.005-2.407-2.59v-.1h6.384v-.622c0-2.84-1.52-4.558-4.035-4.558-2.548 0-4.167 1.835-4.167 4.724 0 2.888 1.586 4.665 4.176 4.665 2.067 0 3.511-.996 3.918-2.615h-1.719zm-37.88-.898c.138 2.22 1.987 3.64 4.74 3.64 2.943 0 4.784-1.489 4.784-3.864 0-1.866-1.05-2.899-3.596-3.492l-1.368-.336c-1.618-.379-2.271-.886-2.271-1.772 0-1.119 1.015-1.85 2.538-1.85 1.445 0 2.443.714 2.624 1.858h1.875c-.111-2.09-1.953-3.562-4.474-3.562-2.71 0-4.516 1.472-4.516 3.683 0 1.824 1.023 2.908 3.269 3.433l1.6.387c1.644.387 2.366.955 2.366 1.901 0 1.101-1.136 1.901-2.684 1.901-1.66 0-2.814-.748-2.977-1.927h-1.91zm-18.487-5.851c-1.229 0-2.291.615-2.84 1.644h-.132v-1.494h-1.718v12.044h1.784v-4.374h.142c.473.954 1.494 1.519 2.78 1.519 2.283 0 3.736-1.802 3.736-4.674 0-2.872-1.453-4.665-3.752-4.665zm-.507 7.737c-1.494 0-2.432-1.179-2.432-3.063 0-1.893.938-3.072 2.44-3.072 1.511 0 2.416 1.154 2.416 3.064 0 1.917-.905 3.07-2.424 3.07zm10.504-7.737c-1.229 0-2.291.615-2.84 1.644h-.132v-1.494h-1.718v12.044h1.784v-4.374h.141c.474.954 1.495 1.519 2.781 1.519 2.283 0 3.736-1.802 3.736-4.674 0-2.872-1.453-4.665-3.752-4.665zm-.507 7.737c-1.494 0-2.432-1.179-2.432-3.063 0-1.893.938-3.072 2.44-3.072 1.511 0 2.416 1.154 2.416 3.064 0 1.917-.905 3.07-2.424 3.07zm-17.382 1.452h2.047L41.008 18.91h-2.073l-4.483 12.415h1.979l1.144-3.295h4.732l1.136 3.295zm-3.57-10.16h.146l1.798 5.248h-3.751l1.806-5.248zM35.651 9.545v5.989h2.163c1.784 0 2.818-1.1 2.818-3.014 0-1.884-1.042-2.975-2.818-2.975H35.65zm.93.846h1.129c1.24 0 1.975.789 1.975 2.142 0 1.374-.722 2.154-1.975 2.154h-1.129v-4.296zm7.216 5.229c1.32 0 2.13-.883 2.13-2.348 0-1.457-.814-2.345-2.13-2.345-1.32 0-2.133.888-2.133 2.345 0 1.465.809 2.349 2.133 2.349zm0-.792c-.776 0-1.212-.569-1.212-1.556 0-.98.436-1.553 1.212-1.553.772 0 1.212.573 1.212 1.553 0 .983-.44 1.556-1.212 1.556zm9.021-3.814h-.892l-.805 3.449h-.07l-.93-3.45h-.855l-.93 3.45h-.067l-.809-3.45h-.905l1.245 4.52h.918l.93-3.328h.07l.934 3.329h.925l1.241-4.52zm1.028 4.52h.892V12.89c0-.706.42-1.146 1.08-1.146.66 0 .975.361.975 1.088v2.702h.892v-2.926c0-1.075-.556-1.681-1.565-1.681-.68 0-1.129.303-1.349.805h-.066v-.718h-.86v4.52zm5.244 0h.893V9.25h-.893v6.284zm4.249.086c1.32 0 2.129-.883 2.129-2.348 0-1.457-.814-2.345-2.13-2.345-1.32 0-2.133.888-2.133 2.345 0 1.465.81 2.349 2.134 2.349zm0-.792c-.776 0-1.212-.569-1.212-1.556 0-.98.435-1.553 1.212-1.553.772 0 1.212.573 1.212 1.553 0 .983-.44 1.556-1.212 1.556zm4.787.029c-.485 0-.838-.236-.838-.643 0-.399.282-.61.905-.652l1.104-.07v.377c0 .56-.498.988-1.17.988zm-.228.751c.594 0 1.088-.257 1.357-.71h.071v.636h.86v-3.088c0-.955-.64-1.52-1.773-1.52-1.025 0-1.756.499-1.847 1.275h.863c.1-.32.444-.502.942-.502.61 0 .926.27.926.747v.39l-1.224.07c-1.075.067-1.681.536-1.681 1.35 0 .825.635 1.352 1.506 1.352zm5.315 0c.623 0 1.15-.294 1.42-.788h.07v.714h.855V9.25h-.892v2.482H74.6c-.245-.498-.768-.793-1.387-.793-1.141 0-1.876.905-1.876 2.333 0 1.432.727 2.336 1.876 2.336zm.253-3.868c.748 0 1.217.594 1.217 1.536 0 .946-.465 1.531-1.217 1.531-.755 0-1.207-.577-1.207-1.535 0-.95.456-1.532 1.207-1.532zm7.879 3.88c1.32 0 2.129-.883 2.129-2.348 0-1.457-.814-2.345-2.13-2.345-1.32 0-2.133.888-2.133 2.345 0 1.465.81 2.349 2.134 2.349zm0-.792c-.776 0-1.212-.569-1.212-1.556 0-.98.436-1.553 1.212-1.553.772 0 1.212.573 1.212 1.553 0 .983-.44 1.556-1.212 1.556zm3.31.706h.892V12.89c0-.706.42-1.146 1.08-1.146.66 0 .975.361.975 1.088v2.702h.892v-2.926c0-1.075-.556-1.681-1.565-1.681-.68 0-1.129.303-1.348.805h-.067v-.718h-.859v4.52zm7.949-5.644v1.145h-.718v.75h.718v2.553c0 .872.394 1.22 1.386 1.22.174 0 .34-.02.486-.045v-.743a2.84 2.84 0 01-.34.02c-.445 0-.64-.207-.64-.68v-2.324h.98v-.751h-.98V9.889h-.892zm3.07 5.644h.892v-2.64c0-.685.407-1.146 1.137-1.146.63 0 .967.366.967 1.088v2.698h.892v-2.918c0-1.075-.593-1.685-1.556-1.685-.68 0-1.158.303-1.378.81h-.07V9.25h-.885v6.284zm7.107-3.848c.66 0 1.092.461 1.113 1.17h-2.283c.05-.705.511-1.17 1.17-1.17zm1.109 2.627c-.166.353-.536.548-1.075.548-.714 0-1.175-.502-1.204-1.295v-.05h3.192v-.31c0-1.42-.76-2.28-2.017-2.28-1.275 0-2.084.918-2.084 2.362 0 1.445.793 2.333 2.088 2.333 1.033 0 1.755-.498 1.959-1.308h-.859zm-79.121 6.822a4.989 4.989 0 012.357-4.152 5.128 5.128 0 00-3.992-2.158c-1.679-.176-3.307 1.005-4.163 1.005-.872 0-2.19-.987-3.608-.958A5.359 5.359 0 0010.89 17.6c-1.934 3.348-.491 8.27 1.361 10.976.927 1.325 2.01 2.806 3.428 2.753 1.387-.057 1.905-.884 3.58-.884 1.658 0 2.144.884 3.59.85 1.489-.023 2.426-1.33 3.32-2.668a10.959 10.959 0 001.52-3.093 4.824 4.824 0 01-2.92-4.399zm-2.732-8.09a4.872 4.872 0 001.115-3.49 4.958 4.958 0 00-3.208 1.66 4.678 4.678 0 00-1.143 3.36 4.147 4.147 0 003.236-1.53z" fill="#000"/></symbol><symbol viewBox="0 0 138 41" fill="none" id="app-store-dark"><rect y=".834" width="138" height="40" rx="7" fill="#000" fill-opacity=".8"/><path d="M86.554 20.035v2.29h-1.436v1.503h1.436v5.105c0 1.743.789 2.44 2.772 2.44.35 0 .681-.04.972-.09v-1.486c-.25.024-.407.041-.681.041-.888 0-1.278-.415-1.278-1.361v-4.649h1.959v-1.502h-1.96v-2.291h-1.784zm8.798 11.463c2.64 0 4.258-1.768 4.258-4.698 0-2.914-1.627-4.69-4.258-4.69-2.64 0-4.267 1.776-4.267 4.69 0 2.93 1.619 4.698 4.267 4.698zm0-1.585c-1.553 0-2.424-1.137-2.424-3.113 0-1.959.871-3.105 2.424-3.105 1.543 0 2.423 1.146 2.423 3.105 0 1.967-.88 3.113-2.424 3.113zm5.643 1.411h1.784v-5.338c0-1.27.955-2.125 2.308-2.125.315 0 .847.059.996.108v-1.76c-.191-.05-.531-.074-.797-.074-1.179 0-2.183.647-2.44 1.536h-.133v-1.387h-1.718v9.04zm9.519-7.694c1.32 0 2.183.92 2.225 2.34h-4.565c.099-1.411 1.021-2.34 2.34-2.34zm2.217 5.254c-.332.705-1.071 1.095-2.15 1.095-1.428 0-2.349-1.004-2.407-2.59v-.1h6.383v-.622c0-2.839-1.519-4.557-4.034-4.557-2.549 0-4.167 1.835-4.167 4.723 0 2.889 1.585 4.665 4.175 4.665 2.067 0 3.511-.996 3.918-2.614h-1.718zm-37.881-.898c.138 2.22 1.988 3.639 4.741 3.639 2.942 0 4.784-1.488 4.784-3.863 0-1.867-1.05-2.9-3.597-3.493l-1.368-.335c-1.617-.38-2.271-.887-2.271-1.773 0-1.118 1.015-1.85 2.538-1.85 1.445 0 2.443.715 2.624 1.859h1.876c-.112-2.09-1.953-3.562-4.474-3.562-2.71 0-4.517 1.471-4.517 3.682 0 1.824 1.024 2.908 3.27 3.433l1.6.387c1.643.387 2.365.955 2.365 1.902 0 1.1-1.135 1.9-2.684 1.9-1.66 0-2.813-.748-2.977-1.926h-1.91zm-18.487-5.851c-1.228 0-2.29.614-2.839 1.643h-.133v-1.494h-1.718V34.33h1.785v-4.375h.14c.474.955 1.495 1.52 2.782 1.52 2.282 0 3.735-1.802 3.735-4.674 0-2.872-1.453-4.665-3.752-4.665zm-.506 7.736c-1.494 0-2.432-1.178-2.432-3.063 0-1.892.938-3.071 2.44-3.071 1.51 0 2.416 1.154 2.416 3.063 0 1.918-.905 3.071-2.424 3.071zm10.503-7.736c-1.229 0-2.291.614-2.839 1.643h-.133v-1.494H61.67V34.33h1.785v-4.375h.14c.474.955 1.495 1.52 2.781 1.52 2.283 0 3.736-1.802 3.736-4.674 0-2.872-1.453-4.665-3.752-4.665zm-.507 7.736c-1.494 0-2.432-1.178-2.432-3.063 0-1.892.938-3.071 2.44-3.071 1.512 0 2.416 1.154 2.416 3.063 0 1.918-.904 3.071-2.424 3.071zm-17.382 1.453h2.048l-4.483-12.415h-2.073L39.48 31.324h1.98l1.143-3.295h4.733l1.135 3.295zm-3.57-10.16h.146l1.798 5.247h-3.751l1.807-5.248zM40.678 9.545v5.989h2.162c1.785 0 2.818-1.1 2.818-3.013 0-1.885-1.041-2.976-2.818-2.976h-2.162zm.93.847h1.128c1.241 0 1.976.788 1.976 2.141 0 1.374-.722 2.154-1.976 2.154h-1.129v-4.295zm7.215 5.229c1.32 0 2.13-.884 2.13-2.349 0-1.457-.814-2.345-2.13-2.345-1.32 0-2.133.888-2.133 2.345 0 1.465.81 2.35 2.133 2.35zm0-.793c-.776 0-1.212-.568-1.212-1.556 0-.98.436-1.552 1.212-1.552.772 0 1.212.572 1.212 1.552 0 .984-.44 1.556-1.212 1.556zm9.022-3.814h-.893l-.805 3.45h-.07l-.93-3.45h-.855l-.93 3.45h-.066l-.81-3.45h-.904l1.245 4.52h.917l.93-3.329h.07l.934 3.329h.926l1.24-4.52zm1.027 4.52h.892V12.89c0-.705.42-1.145 1.08-1.145.66 0 .975.36.975 1.087v2.702h.892v-2.926c0-1.075-.556-1.681-1.564-1.681-.681 0-1.13.303-1.35.805h-.066v-.718h-.859v4.52zm5.245 0h.892V9.25h-.892v6.284zm4.248.087c1.32 0 2.13-.884 2.13-2.349 0-1.457-.814-2.345-2.13-2.345-1.32 0-2.133.888-2.133 2.345 0 1.465.809 2.35 2.133 2.35zm0-.793c-.776 0-1.212-.568-1.212-1.556 0-.98.436-1.552 1.212-1.552.772 0 1.212.572 1.212 1.552 0 .984-.44 1.556-1.212 1.556zm4.788.029c-.486 0-.839-.236-.839-.643 0-.398.283-.61.905-.652l1.104-.07v.378c0 .56-.498.987-1.17.987zm-.228.752c.593 0 1.087-.258 1.357-.71h.07v.635h.86v-3.088c0-.954-.64-1.519-1.773-1.519-1.025 0-1.755.498-1.847 1.274h.864c.1-.32.444-.502.942-.502.61 0 .925.27.925.747v.39l-1.224.07c-1.075.067-1.681.536-1.681 1.35 0 .825.635 1.353 1.507 1.353zm5.315 0c.622 0 1.15-.295 1.419-.789h.07v.714h.856V9.25h-.893v2.482h-.066c-.245-.498-.768-.792-1.386-.792-1.142 0-1.876.904-1.876 2.332 0 1.432.726 2.337 1.876 2.337zm.253-3.868c.747 0 1.216.593 1.216 1.535 0 .946-.465 1.532-1.216 1.532-.756 0-1.208-.577-1.208-1.536 0-.95.457-1.531 1.208-1.531zm7.878 3.88c1.32 0 2.13-.884 2.13-2.349 0-1.457-.814-2.345-2.13-2.345-1.32 0-2.133.888-2.133 2.345 0 1.465.81 2.35 2.133 2.35zm0-.793c-.776 0-1.212-.568-1.212-1.556 0-.98.436-1.552 1.212-1.552.772 0 1.212.572 1.212 1.552 0 .984-.44 1.556-1.212 1.556zm3.31.706h.893V12.89c0-.705.419-1.145 1.079-1.145.66 0 .975.36.975 1.087v2.702h.892v-2.926c0-1.075-.556-1.681-1.564-1.681-.68 0-1.13.303-1.35.805h-.066v-.718h-.859v4.52zM97.63 9.89v1.145h-.718v.751h.718v2.553c0 .871.395 1.22 1.386 1.22.175 0 .34-.02.486-.046v-.743a2.808 2.808 0 01-.34.021c-.444 0-.64-.207-.64-.68v-2.325h.98v-.751h-.98V9.889h-.892zm3.07 5.644h.892v-2.64c0-.684.407-1.145 1.137-1.145.631 0 .967.365.967 1.087v2.698h.893v-2.918c0-1.075-.594-1.685-1.557-1.685-.68 0-1.158.303-1.378.81h-.07V9.25h-.884v6.283zm7.108-3.847c.66 0 1.091.46 1.112 1.17h-2.283c.05-.706.511-1.17 1.171-1.17zm1.108 2.627c-.166.352-.535.548-1.075.548-.714 0-1.175-.503-1.204-1.295v-.05h3.192v-.311c0-1.42-.759-2.279-2.017-2.279-1.274 0-2.084.917-2.084 2.362 0 1.444.793 2.332 2.088 2.332 1.034 0 1.756-.498 1.959-1.307h-.859zm-79.119 6.821a4.989 4.989 0 012.357-4.152 5.128 5.128 0 00-3.991-2.158c-1.68-.176-3.308 1.005-4.163 1.005-.872 0-2.19-.987-3.609-.958a5.359 5.359 0 00-4.473 2.728c-1.934 3.348-.491 8.27 1.362 10.976.926 1.325 2.01 2.805 3.427 2.753 1.387-.058 1.905-.884 3.58-.884 1.658 0 2.144.884 3.59.85 1.489-.024 2.427-1.33 3.321-2.669a10.963 10.963 0 001.519-3.092 4.825 4.825 0 01-2.92-4.4zm-2.731-8.09a4.872 4.872 0 001.114-3.49 4.957 4.957 0 00-3.207 1.66 4.678 4.678 0 00-1.144 3.36 4.147 4.147 0 003.237-1.53z" fill="#fff"/></symbol><symbol viewBox="0 0 37 24" fill="none" id="applepay"><path opacity=".3" fill-rule="evenodd" clip-rule="evenodd" d="M2 0a2 2 0 00-2 2v20a2 2 0 002 2h33a2 2 0 002-2V2a2 2 0 00-2-2H2zm7.251 7.548c.327-.401.895-.687 1.357-.712v.002c.057.55-.159 1.088-.475 1.491-.328.39-.848.7-1.369.653-.068-.528.193-1.09.487-1.434zm4.76 8.524v-8.58l3.174-.001c1.643 0 2.787 1.148 2.787 2.819 0 1.676-1.167 2.83-2.829 2.83h-1.819v2.932h-1.313zM9.388 9.36c-.218.087-.403.161-.545.161-.157 0-.349-.077-.565-.163-.283-.114-.608-.244-.947-.238-.39.01-.77.123-1.102.327a2.246 2.246 0 00-.795.84c-.812 1.418-.214 3.522.577 4.678.384.571.846 1.2 1.455 1.177.267-.01.459-.092.658-.177.23-.098.468-.2.842-.2.359 0 .587.099.807.194.208.09.408.178.704.172.632-.01 1.028-.571 1.41-1.144a5.105 5.105 0 00.63-1.304l.003-.01-.018-.009c-.151-.071-1.2-.567-1.21-1.88-.012-1.107.836-1.669.975-1.76l.017-.012c-.543-.813-1.388-.903-1.68-.927a1.713 1.713 0 00-.142-.003v.002c-.404.009-.77.155-1.074.276zm11.175 2.306c.07-1.13 1.02-1.962 2.547-1.962 1.496 0 2.452.803 2.452 2.057v4.311h-1.215v-1.03h-.029c-.358.697-1.138 1.136-1.949 1.136-1.208 0-2.053-.76-2.053-1.885 0-1.093.828-1.765 2.294-1.85l1.691-.1v-.482c0-.695-.464-1.11-1.238-1.11-.734 0-1.191.356-1.302.915h-1.198zm5.537-1.85l2.23 6.262-.04.133c-.032.109-.073.247-.073.253-.193.64-.509.892-1.096.892-.106 0-.318 0-.412-.023v1.04c.093.017.412.03.517.03 1.28 0 1.89-.488 2.417-2.004l2.313-6.583h-1.339l-1.56 5.09h-.023l-1.562-5.091-1.372.001zm-10.776-1.2h1.514c1.14 0 1.79.618 1.79 1.7 0 1.081-.65 1.706-1.794 1.706h-1.51V8.615zm8.977 5.113v-.493l-.38.023-.38.024-.76.048c-.757.051-1.185.392-1.185.926 0 .548.445.905 1.127.905.885 0 1.578-.619 1.578-1.433z" fill="#fff"/></symbol><symbol viewBox="0 0 25 18" fill="none" id="bars"><path d="M.578 1h24m-24 8h24m-24 8h24" stroke="#fff"/></symbol><symbol viewBox="0 0 38 24" fill="none" id="card"><path opacity=".3" fill-rule="evenodd" clip-rule="evenodd" d="M.099 2a2 2 0 012-2h33a2 2 0 012 2v20a2 2 0 01-2 2h-33a2 2 0 01-2-2V2zM28.36 7.363h-.453v7.557a2.873 2.873 0 01-2.869 2.87H12.322v.494a1.64 1.64 0 001.639 1.639h14.4A1.64 1.64 0 0030 18.283v-9.28a1.64 1.64 0 00-1.639-1.64zM26.678 8.39H9v1.23h17.678V8.39zm0 6.531v-4.07H9v4.07a1.64 1.64 0 001.639 1.64h14.4a1.64 1.64 0 001.639-1.64zM25.039 4a1.64 1.64 0 011.639 1.639v1.52H9v-1.52A1.64 1.64 0 0110.639 4h14.4z" fill="#fff"/></symbol><symbol viewBox="0 0 32 31" fill="none" id="close"><path d="M2 1.834l28 28m0-28l-28 28" stroke="#fff" stroke-width="3"/></symbol><symbol viewBox="0 0 100 46" fill="none" id="designer"><path d="M99 1v32H1V1h98zm1-1H0v34h100V0z" fill="#fff"/><path d="M80.649 22.75l-.601 4.261h-.249l-.337-4.136L78.811 4H77l1.499 26h2.619L83.6 4h-2.072l-.879 18.75zM67.569 4H64v26h3.439C69.415 30 70 28.84 70 27V6.766C70 4.924 69.545 4 67.569 4zM68 27.462c0 1.323.06 1.538-1 1.538h-1V5h1c1.06 0 1 .216 1 1.537v20.925zM72 30h4v-1h-2V16h1.341v-1H74V5h2V4h-4v26zM18 4l-2 26h1.525l.736-8H20l.226 8h2.076L20.85 4H18zm.333 17l.599-11.745.298-3.156h.57l.2 3.156V21h-1.667zM43 4h-2v26h4v-1h-2V4zm3 26h4v-1h-2V16h1.326v-1H48V5h1.989V4H46v26zM30.713 5h1.666v25h1.861V5h1.601V4h-5.128v1zm5.904 22.939c-.669 0-1.206.533-1.206 1.191 0 .663.537 1.193 1.206 1.193.667 0 1.205-.53 1.205-1.193 0-.657-.537-1.191-1.205-1.191zM55.709 4H51v26h3.94c1.249 0 2.045-1.002 2.06-2.094V17.631c0-1.254-.219-1.568-.666-1.821v-.564c.551-.276.666-.557.666-1.434v-8.23C57 4.66 56.652 4 55.709 4zM55 28.104c-.012.689-.057.832-.61.832h-1.403L53 16h1.406c.551 0 .594.301.594 1.422v10.682zm0-14.463c0 1.091.028 1.303-.551 1.359H53l-.014-10h1.447c.466 0 .567.216.567.792v7.849zM27.594 4H24v26h2V18h1.331c.61 0 .669.282.669 1v11h2l-.011-9.89c0-1.425.073-1.795-.724-2.259v-.603c.529-.057.735-.125.735-1.533V7c0-1.842-.446-3-2.406-3zM28 16c0 .805.019 1-.636 1H26V5l.839-.016C27.883 5 28 5.677 28 7v9zm31 14h4v-1h-2V16h1.336v-1H61V5h2V4h-4v26zM2.962 39.842c0-.738-.558-1.08-1.098-1.08-.486 0-1 .26-1.387.576l-.405-.495c.468-.522 1.233-.828 1.917-.828.981 0 1.909.567 1.909 1.827 0 1.54-1.773 3.24-2.791 4.178h2.881v.792H0v-.648c.99-1.027 2.962-2.755 2.962-4.322zm4.918 5.123c-1.863 0-2.386-1.963-2.386-3.476 0-1.512.522-3.475 2.386-3.475s2.386 1.963 2.386 3.475c0 1.513-.522 3.476-2.386 3.476zm0-6.275c-1.269 0-1.503 1.837-1.503 2.8 0 .964.234 2.81 1.503 2.81 1.27 0 1.504-1.846 1.504-2.81 0-.963-.234-2.8-1.504-2.8zm6.528 1.152c0-.738-.558-1.08-1.098-1.08-.486 0-1 .26-1.387.576l-.405-.495c.468-.522 1.233-.828 1.917-.828.981 0 1.909.567 1.909 1.827 0 1.54-1.773 3.24-2.791 4.178h2.881v.792h-3.988v-.648c.99-1.027 2.962-2.755 2.962-4.322zm2.351-.602l1.944-1.152h.567v5.987l1.197.216v.44h-3.286v-.441l1.197-.216v-4.997c.009-.01-1.458.54-1.458.54l-.161-.377z" fill="#fff"/></symbol><symbol viewBox="0 0 41 41" fill="none" id="facebook"><g clip-path="url(#facebook_clip0)"><path d="M20.432 40.855c11.052 0 20.01-8.96 20.01-20.01 0-11.052-8.958-20.011-20.01-20.011C9.381.834.422 9.793.422 20.844c0 11.052 8.959 20.01 20.01 20.01z" fill="#fff"/><path fill-rule="evenodd" clip-rule="evenodd" d="M17.446 40.633v-13.85h-5.024v-5.865h5.024V16.59c0-5.023 3.046-7.756 7.485-7.756 2.134 0 3.957.165 4.49.234v5.249h-3.08c-2.417 0-2.881 1.153-2.881 2.854v3.747h5.764l-.748 5.865h-5.008v13.843c9.611-1.463 16.975-9.762 16.975-19.782 0-11.051-8.96-20.01-20.01-20.01C9.38.834.421 9.793.421 20.844c0 10.037 7.39 18.348 17.024 19.79z" fill="#1877F2"/></g></symbol><symbol viewBox="0 0 135 41" fill="none" id="google-play"><path d="M0 12.034c0-3.92 0-5.88.763-7.378a7 7 0 013.06-3.06C5.318.835 7.28.835 11.2.835h112.6c3.92 0 5.881 0 7.378.763a7 7 0 013.059 3.059c.763 1.497.763 3.458.763 7.378v17.6c0 3.92 0 5.88-.763 7.378a7 7 0 01-3.059 3.059c-1.497.763-3.458.763-7.378.763H11.2c-3.92 0-5.88 0-7.378-.763a7 7 0 01-3.059-3.06C0 35.515 0 33.555 0 29.635v-17.6z" fill="#fff"/><path d="M68.136 22.585c-2.352 0-4.269 1.789-4.269 4.253 0 2.449 1.917 4.253 4.269 4.253 2.353 0 4.27-1.804 4.27-4.253-.001-2.464-1.918-4.253-4.27-4.253zm0 6.832c-1.289 0-2.4-1.063-2.4-2.578 0-1.531 1.112-2.578 2.4-2.578 1.289 0 2.4 1.047 2.4 2.578 0 1.514-1.111 2.578-2.4 2.578zm-9.314-6.832c-2.352 0-4.269 1.789-4.269 4.253 0 2.449 1.917 4.253 4.269 4.253 2.353 0 4.27-1.804 4.27-4.253 0-2.464-1.917-4.253-4.27-4.253zm0 6.832c-1.289 0-2.4-1.063-2.4-2.578 0-1.531 1.112-2.578 2.4-2.578 1.289 0 2.4 1.047 2.4 2.578.001 1.514-1.111 2.578-2.4 2.578zM47.744 23.89v1.804h4.318c-.129 1.015-.467 1.756-.983 2.27-.628.629-1.611 1.322-3.335 1.322-2.658 0-4.736-2.143-4.736-4.801 0-2.658 2.078-4.801 4.736-4.801 1.434 0 2.481.564 3.254 1.289l1.273-1.273c-1.08-1.031-2.513-1.82-4.527-1.82-3.641 0-6.702 2.964-6.702 6.605 0 3.64 3.061 6.605 6.702 6.605 1.965 0 3.448-.645 4.607-1.853 1.192-1.192 1.563-2.868 1.563-4.221 0-.418-.032-.805-.097-1.127h-6.073zm45.308 1.4c-.354-.95-1.434-2.706-3.641-2.706-2.191 0-4.012 1.724-4.012 4.253 0 2.384 1.805 4.253 4.221 4.253 1.949 0 3.077-1.192 3.545-1.885l-1.45-.967c-.483.709-1.144 1.176-2.095 1.176-.95 0-1.627-.435-2.062-1.29l5.687-2.351-.193-.482zm-5.8 1.419c-.048-1.644 1.273-2.481 2.224-2.481.741 0 1.369.37 1.579.902l-3.803 1.579zm-4.623 4.124h1.868v-12.5h-1.868v12.5zm-3.062-7.298h-.064c-.419-.5-1.225-.951-2.239-.951-2.127 0-4.076 1.869-4.076 4.27 0 2.384 1.949 4.237 4.076 4.237 1.015 0 1.82-.451 2.239-.966h.064v.612c0 1.627-.87 2.497-2.271 2.497-1.144 0-1.853-.821-2.143-1.514l-1.627.677c.467 1.127 1.707 2.513 3.77 2.513 2.191 0 4.044-1.29 4.044-4.431v-7.636h-1.772v.692h-.001zm-2.142 5.88c-1.289 0-2.368-1.08-2.368-2.561 0-1.5 1.079-2.594 2.368-2.594 1.272 0 2.271 1.095 2.271 2.594 0 1.482-.999 2.562-2.271 2.562zm24.381-11.083h-4.471v12.5H99.2v-4.735h2.605c2.068 0 4.102-1.497 4.102-3.882s-2.033-3.883-4.101-3.883zm.048 6.025H99.2v-4.285h2.654c1.395 0 2.187 1.155 2.187 2.143 0 .968-.792 2.142-2.187 2.142zm11.532-1.795c-1.351 0-2.75.595-3.329 1.914l1.656.69c.354-.69 1.014-.916 1.705-.916.965 0 1.946.579 1.962 1.608v.129c-.338-.193-1.062-.482-1.946-.482-1.785 0-3.603.98-3.603 2.814 0 1.673 1.464 2.75 3.104 2.75 1.254 0 1.946-.563 2.38-1.223h.064v.965h1.802v-4.793c.001-2.218-1.657-3.456-3.795-3.456zm-.226 6.85c-.61 0-1.463-.305-1.463-1.061 0-.965 1.062-1.335 1.979-1.335.819 0 1.206.177 1.704.418a2.262 2.262 0 01-2.22 1.979zm10.583-6.577l-2.139 5.42h-.064l-2.22-5.42h-2.01l3.329 7.575-1.898 4.214h1.946l5.131-11.79h-2.075zm-16.806 7.998h1.865v-12.5h-1.865v12.5zM47.418 11.077c0 .838-.248 1.505-.745 2.003-.564.592-1.3.888-2.204.888-.866 0-1.603-.3-2.208-.9-.606-.6-.909-1.345-.909-2.233 0-.889.303-1.633.91-2.233.604-.6 1.341-.9 2.207-.9.43 0 .841.083 1.231.25.391.168.704.391.938.67l-.527.528c-.397-.475-.944-.712-1.643-.712-.632 0-1.178.222-1.639.666-.461.444-.69 1.021-.69 1.73 0 .71.229 1.286.69 1.73a2.282 2.282 0 001.639.666c.67 0 1.23-.223 1.676-.67.29-.29.458-.696.503-1.215h-2.179v-.72h2.907c.03.156.043.307.043.452zm4.61-2.506h-2.732v1.902h2.464v.721h-2.464v1.902h2.732v.738h-3.503v-6h3.503v.737zm3.251 5.263h-.771V8.571h-1.676v-.737h4.123v.737h-1.676v5.263zm4.659 0v-6h.771v6h-.771zm4.19 0h-.77V8.571H61.68v-.737h4.123v.737h-1.676v5.263zm9.481-.774c-.59.605-1.323.908-2.2.908-.877 0-1.61-.303-2.2-.909-.59-.606-.883-1.348-.883-2.225s.294-1.619.884-2.225c.589-.606 1.322-.91 2.199-.91.872 0 1.604.305 2.196.914.592.61.888 1.35.888 2.221 0 .877-.295 1.62-.884 2.225zm-3.83-.504a2.2 2.2 0 001.63.674c.643 0 1.187-.225 1.63-.674.444-.45.667-1.024.667-1.722s-.223-1.272-.667-1.722a2.199 2.199 0 00-1.63-.674c-.643 0-1.186.225-1.63.674-.443.45-.666 1.024-.666 1.722s.223 1.272.666 1.722zm5.796 1.278v-6h.938l2.916 4.667h.033l-.033-1.156v-3.51h.77v6h-.804L76.344 8.94h-.033l.033 1.156v3.738h-.77z" fill="#000"/><path d="M47.418 11.077c0 .838-.248 1.505-.745 2.003-.564.592-1.3.888-2.204.888-.866 0-1.603-.3-2.208-.9-.606-.6-.909-1.345-.909-2.233 0-.889.303-1.633.91-2.233.604-.6 1.341-.9 2.207-.9.43 0 .841.083 1.231.25.391.168.704.391.938.67l-.527.528c-.397-.475-.944-.712-1.643-.712-.632 0-1.178.222-1.639.666-.461.444-.69 1.021-.69 1.73 0 .71.229 1.286.69 1.73a2.282 2.282 0 001.639.666c.67 0 1.23-.223 1.676-.67.29-.29.458-.696.503-1.215h-2.179v-.72h2.907c.03.156.043.307.043.452zm4.61-2.506h-2.732v1.902h2.464v.721h-2.464v1.902h2.732v.738h-3.503v-6h3.503v.737zm3.251 5.263h-.771V8.571h-1.676v-.737h4.123v.737h-1.676v5.263zm4.659 0v-6h.771v6h-.771zm4.19 0h-.77V8.571H61.68v-.737h4.123v.737h-1.676v5.263zm9.481-.774c-.59.605-1.323.908-2.2.908-.877 0-1.61-.303-2.2-.909-.59-.606-.883-1.348-.883-2.225s.294-1.619.884-2.225c.589-.606 1.322-.91 2.199-.91.872 0 1.604.305 2.196.914.592.61.888 1.35.888 2.221 0 .877-.295 1.62-.884 2.225zm-3.83-.504a2.2 2.2 0 001.63.674c.643 0 1.187-.225 1.63-.674.444-.45.667-1.024.667-1.722s-.223-1.272-.667-1.722a2.199 2.199 0 00-1.63-.674c-.643 0-1.186.225-1.63.674-.443.45-.666 1.024-.666 1.722s.223 1.272.666 1.722zm5.796 1.278v-6h.938l2.916 4.667h.033l-.033-1.156v-3.51h.77v6h-.804L76.344 8.94h-.033l.033 1.156v3.738h-.77z" stroke="#000" stroke-width=".2" stroke-miterlimit="10"/><g filter="url(#google-play_filter0_ii)"><path d="M10.436 8.372c-.29.308-.463.786-.463 1.405v22.116c0 .62.172 1.097.463 1.405l.074.072L22.9 20.98v-.291L10.51 8.299l-.074.073z" fill="url(#google-play_paint0_linear)"/><path d="M27.028 25.112l-4.13-4.131v-.292l4.13-4.13.094.053 4.893 2.78c1.397.794 1.397 2.093 0 2.888l-4.893 2.78-.094.052z" fill="url(#google-play_paint1_linear)"/><g filter="url(#google-play_filter1_i)"><path d="M27.122 25.059l-4.224-4.224-12.462 12.463c.46.488 1.221.548 2.078.062l14.608-8.301z" fill="url(#google-play_paint2_linear)"/></g><path d="M27.122 16.61l-14.608-8.3c-.857-.486-1.618-.425-2.078.063l12.463 12.463 4.223-4.225z" fill="url(#google-play_paint3_linear)"/></g><defs><filter id="google-play_filter0_ii" x="9.973" y="7.975" width="23.09" height="25.721" filterUnits="userSpaceOnUse" color-interpolation-filters="sRGB"><feFlood flood-opacity="0" result="BackgroundImageFix"/><feBlend in="SourceGraphic" in2="BackgroundImageFix" result="shape"/><feColorMatrix in="SourceAlpha" values="0 0 0 0 0 0 0 0 0 0 0 0 0 0 0 0 0 0 127 0" result="hardAlpha"/><feOffset dy="-.15"/><feComposite in2="hardAlpha" operator="arithmetic" k2="-1" k3="1"/><feColorMatrix values="0 0 0 0 0 0 0 0 0 0 0 0 0 0 0 0 0 0 0.12 0"/><feBlend in2="shape" result="effect1_innerShadow"/><feColorMatrix in="SourceAlpha" values="0 0 0 0 0 0 0 0 0 0 0 0 0 0 0 0 0 0 127 0" result="hardAlpha"/><feOffset dy=".15"/><feComposite in2="hardAlpha" operator="arithmetic" k2="-1" k3="1"/><feColorMatrix values="0 0 0 0 1 0 0 0 0 1 0 0 0 0 1 0 0 0 0.25 0"/><feBlend in2="effect1_innerShadow" result="effect2_innerShadow"/></filter><filter id="google-play_filter1_i" x="10.436" y="20.835" width="16.686" height="12.861" filterUnits="userSpaceOnUse" color-interpolation-filters="sRGB"><feFlood flood-opacity="0" result="BackgroundImageFix"/><feBlend in="SourceGraphic" in2="BackgroundImageFix" result="shape"/><feColorMatrix in="SourceAlpha" values="0 0 0 0 0 0 0 0 0 0 0 0 0 0 0 0 0 0 127 0" result="hardAlpha"/><feOffset dy="-.15"/><feComposite in2="hardAlpha" operator="arithmetic" k2="-1" k3="1"/><feColorMatrix values="0 0 0 0 0 0 0 0 0 0 0 0 0 0 0 0 0 0 0.08 0"/><feBlend in2="shape" result="effect1_innerShadow"/></filter></defs></symbol><symbol viewBox="0 0 138 41" fill="none" id="google-play-dark"><rect y=".834" width="138" height="40" rx="7" fill="#000" fill-opacity=".8"/><path d="M65.81 22.585c-2.351 0-4.268 1.79-4.268 4.253 0 2.45 1.917 4.253 4.269 4.253 2.353 0 4.27-1.804 4.27-4.253-.001-2.464-1.918-4.253-4.27-4.253zm0 6.832c-1.288 0-2.4-1.063-2.4-2.578 0-1.53 1.113-2.578 2.4-2.578 1.29 0 2.4 1.047 2.4 2.578 0 1.514-1.11 2.578-2.4 2.578zm-9.313-6.832c-2.352 0-4.27 1.79-4.27 4.253 0 2.45 1.918 4.253 4.27 4.253 2.353 0 4.27-1.804 4.27-4.253 0-2.464-1.917-4.253-4.27-4.253zm0 6.832c-1.29 0-2.4-1.063-2.4-2.578 0-1.53 1.112-2.578 2.4-2.578 1.289 0 2.4 1.047 2.4 2.578 0 1.514-1.111 2.578-2.4 2.578zm-11.078-5.526v1.804h4.318c-.13 1.015-.467 1.756-.983 2.271-.628.628-1.611 1.321-3.335 1.321-2.658 0-4.736-2.143-4.736-4.8 0-2.659 2.078-4.802 4.736-4.802 1.434 0 2.48.564 3.254 1.29l1.273-1.274c-1.08-1.03-2.513-1.82-4.527-1.82-3.641 0-6.702 2.964-6.702 6.605 0 3.641 3.06 6.605 6.702 6.605 1.965 0 3.448-.645 4.607-1.853 1.192-1.192 1.563-2.868 1.563-4.22a5.84 5.84 0 00-.097-1.128h-6.073v.001zm45.308 1.401c-.354-.95-1.434-2.707-3.641-2.707-2.191 0-4.012 1.724-4.012 4.253 0 2.384 1.805 4.253 4.22 4.253 1.95 0 3.078-1.192 3.546-1.885l-1.45-.967c-.483.71-1.144 1.176-2.095 1.176-.95 0-1.627-.435-2.062-1.289l5.687-2.352-.193-.482zm-5.8 1.418c-.048-1.644 1.273-2.48 2.224-2.48.74 0 1.369.37 1.579.901l-3.803 1.58zm-4.623 4.124h1.868v-12.5h-1.868v12.5zm-3.062-7.298h-.064c-.42-.5-1.225-.95-2.24-.95-2.126 0-4.075 1.868-4.075 4.27 0 2.383 1.949 4.236 4.076 4.236 1.015 0 1.82-.45 2.239-.966h.064v.612c0 1.627-.87 2.497-2.271 2.497-1.144 0-1.853-.82-2.143-1.514l-1.627.677c.467 1.127 1.707 2.513 3.77 2.513 2.19 0 4.044-1.289 4.044-4.43v-7.637h-1.772v.692h-.001zM75.1 29.417c-1.29 0-2.368-1.08-2.368-2.562 0-1.499 1.079-2.594 2.368-2.594 1.272 0 2.27 1.095 2.27 2.594 0 1.482-.998 2.562-2.27 2.562zm24.38-11.084h-4.47v12.501h1.865v-4.736h2.605c2.068 0 4.102-1.497 4.102-3.882s-2.033-3.883-4.101-3.883zm.049 6.025h-2.654v-4.285h2.654c1.395 0 2.187 1.155 2.187 2.143 0 .968-.792 2.142-2.187 2.142zm11.532-1.795c-1.351 0-2.75.595-3.329 1.914l1.656.691c.354-.69 1.014-.917 1.705-.917.965 0 1.946.58 1.962 1.608v.13c-.338-.194-1.062-.483-1.946-.483-1.785 0-3.603.981-3.603 2.814 0 1.673 1.464 2.75 3.104 2.75 1.254 0 1.946-.563 2.38-1.223h.064v.965h1.802V26.02c.001-2.218-1.657-3.456-3.795-3.456zm-.226 6.851c-.61 0-1.463-.306-1.463-1.062 0-.965 1.062-1.335 1.979-1.335.819 0 1.206.177 1.704.418a2.262 2.262 0 01-2.22 1.98zm10.583-6.578l-2.139 5.42h-.064l-2.22-5.42h-2.01l3.329 7.575-1.898 4.214h1.946l5.131-11.789h-2.075zm-16.806 7.998h1.865v-12.5h-1.865v12.5zM45.091 11.077c0 .838-.248 1.505-.745 2.003-.564.592-1.3.888-2.204.888-.866 0-1.603-.3-2.208-.9-.606-.601-.909-1.345-.909-2.233 0-.89.303-1.633.91-2.233.604-.601 1.341-.901 2.207-.901.43 0 .841.084 1.231.25.391.169.704.392.938.67l-.527.529c-.397-.475-.944-.712-1.643-.712-.632 0-1.178.222-1.639.666-.46.444-.69 1.02-.69 1.73 0 .709.23 1.286.69 1.73a2.282 2.282 0 001.64.666c.67 0 1.228-.223 1.675-.67.29-.291.458-.696.503-1.215h-2.179v-.721h2.907c.03.157.043.308.043.453zm4.611-2.506h-2.733v1.902h2.465v.721h-2.465v1.902h2.733v.738h-3.503v-6h3.503v.737zm3.25 5.263h-.77V8.571h-1.677v-.737h4.123v.737h-1.676v5.263zm4.659 0v-6h.771v6h-.77zm4.19 0h-.77V8.571h-1.676v-.737h4.123v.737H61.8v5.263zm9.481-.775c-.59.606-1.323.909-2.2.909-.877 0-1.61-.303-2.199-.909-.59-.606-.884-1.348-.884-2.225s.294-1.619.884-2.225c.59-.606 1.322-.91 2.2-.91.871 0 1.603.305 2.195.914.592.609.888 1.349.888 2.221 0 .877-.295 1.619-.884 2.225zm-3.83-.503a2.2 2.2 0 001.63.674c.643 0 1.187-.225 1.63-.674.444-.45.667-1.024.667-1.722s-.223-1.272-.667-1.722a2.199 2.199 0 00-1.63-.674c-.643 0-1.186.225-1.63.674-.443.45-.666 1.024-.666 1.722s.223 1.272.666 1.722zm5.796 1.278v-6h.938l2.916 4.667h.033l-.033-1.156V7.834h.771v6h-.805l-3.05-4.894h-.034l.033 1.156v3.738h-.769z" fill="#fff"/><path d="M45.091 11.077c0 .838-.248 1.505-.745 2.003-.564.592-1.3.888-2.204.888-.866 0-1.603-.3-2.208-.9-.606-.601-.909-1.345-.909-2.233 0-.89.303-1.633.91-2.233.604-.601 1.341-.901 2.207-.901.43 0 .841.084 1.231.25.391.169.704.392.938.67l-.527.529c-.397-.475-.944-.712-1.643-.712-.632 0-1.178.222-1.639.666-.46.444-.69 1.02-.69 1.73 0 .709.23 1.286.69 1.73a2.282 2.282 0 001.64.666c.67 0 1.228-.223 1.675-.67.29-.291.458-.696.503-1.215h-2.179v-.721h2.907c.03.157.043.308.043.453zm4.611-2.506h-2.733v1.902h2.465v.721h-2.465v1.902h2.733v.738h-3.503v-6h3.503v.737zm3.25 5.263h-.77V8.571h-1.677v-.737h4.123v.737h-1.676v5.263zm4.659 0v-6h.771v6h-.77zm4.19 0h-.77V8.571h-1.676v-.737h4.123v.737H61.8v5.263zm9.481-.775c-.59.606-1.323.909-2.2.909-.877 0-1.61-.303-2.199-.909-.59-.606-.884-1.348-.884-2.225s.294-1.619.884-2.225c.59-.606 1.322-.91 2.2-.91.871 0 1.603.305 2.195.914.592.609.888 1.349.888 2.221 0 .877-.295 1.619-.884 2.225zm-3.83-.503a2.2 2.2 0 001.63.674c.643 0 1.187-.225 1.63-.674.444-.45.667-1.024.667-1.722s-.223-1.272-.667-1.722a2.199 2.199 0 00-1.63-.674c-.643 0-1.186.225-1.63.674-.443.45-.666 1.024-.666 1.722s.223 1.272.666 1.722zm5.796 1.278v-6h.938l2.916 4.667h.033l-.033-1.156V7.834h.771v6h-.805l-3.05-4.894h-.034l.033 1.156v3.738h-.769z" stroke="#fff" stroke-width=".2" stroke-miterlimit="10"/><path d="M29.526 22.24l-4.246 2.403-3.808-3.784 3.838-3.815 4.216 2.386a1.615 1.615 0 010 2.81zM7.12 8.835A1.61 1.61 0 007 9.45v22.77c0 .235.049.454.134.65L19.22 20.858 7.12 8.835zm13.225 10.904l3.53-3.508L9.41 8.045a1.588 1.588 0 00-1.024-.194l11.96 11.888zm0 2.239L8.429 33.822a1.58 1.58 0 00.981-.198l14.435-8.169-3.5-3.477z" fill="#fff"/></symbol><symbol viewBox="0 0 37 24" fill="none" id="googlepay"><path opacity=".3" fill-rule="evenodd" clip-rule="evenodd" d="M2 0a2 2 0 00-2 2v20a2 2 0 002 2h33a2 2 0 002-2V2a2 2 0 00-2-2H2zm5.118 7.924a4.375 4.375 0 012.34-.68h.001a4.225 4.225 0 012.984 1.192L11.169 9.74a2.388 2.388 0 00-1.71-.686c-1.163 0-2.15.804-2.503 1.889a2.808 2.808 0 000 1.75c.354 1.084 1.34 1.888 2.503 1.888.604 0 1.119-.159 1.52-.437.231-.158.43-.363.582-.602a2.15 2.15 0 00.306-.789H9.459v-1.76h4.204c.052.306.078.617.078.93 0 1.391-.486 2.568-1.327 3.365-.74.698-1.752 1.104-2.956 1.104a4.375 4.375 0 01-2.34-.68 4.533 4.533 0 01-1.643-1.84 4.671 4.671 0 010-4.108 4.532 4.532 0 011.643-1.84zm9.654 7.918V7.878h2.645c.316-.008.63.05.923.169.294.118.562.295.79.52a2.242 2.242 0 01.714 1.681c.006.318-.054.633-.178.925a2.205 2.205 0 01-.537.764c-.463.453-1.034.679-1.712.679h-1.648v3.226h-.997zm3.235-6.868a1.273 1.273 0 00-.565-.115h-1.673v2.78h1.673a1.288 1.288 0 00.986-.413 1.36 1.36 0 00.4-.973 1.388 1.388 0 00-.4-.972 1.3 1.3 0 00-.421-.307zm1.99 2.309c.483-.712 1.198-1.068 2.145-1.068.737 0 1.317.202 1.745.606.425.404.639.958.639 1.662v3.357h-.954v-.755h-.043c-.413.623-.962.934-1.648.934-.585 0-1.075-.179-1.468-.534a1.699 1.699 0 01-.442-.599 1.741 1.741 0 01-.149-.735c0-.563.207-1.012.623-1.345.415-.333.97-.5 1.664-.5.592 0 1.08.11 1.463.333v-.233a1.19 1.19 0 00-.412-.906 1.391 1.391 0 00-.963-.373c-.557 0-.998.241-1.322.723l-.878-.567zm6.88 4.213l-2.19-5.103h1.084l1.582 3.912h.022l1.54-3.913H32l-3.329 7.851h-1.03l1.236-2.746zm-3.303-1.99c-.31-.253-.745-.38-1.3-.38h-.002c-.405 0-.742.1-1.012.3-.274.204-.409.45-.409.747a.835.835 0 00.33.667 1.2 1.2 0 00.776.268 1.572 1.572 0 001.122-.478c.33-.32.495-.694.495-1.123z" fill="#fff"/></symbol><symbol viewBox="0 0 126 19" fill="none" id="logo"><path d="M43.452 7.362c0 2.192-.591 3.87-1.775 5.036-1.178 1.165-2.88 1.748-5.11 1.748H33V.834h3.955c2.057 0 3.654.574 4.791 1.72 1.137 1.148 1.706 2.75 1.706 4.808zm-2.774.073c0-2.859-1.195-4.288-3.585-4.288h-1.422v8.668h1.146c2.574 0 3.86-1.46 3.86-4.38zm6.782 1.603c0 1.007.155 1.77.465 2.285.316.516.827.774 1.534.774.7 0 1.203-.255 1.508-.765.31-.516.465-1.28.465-2.294 0-1.008-.155-1.764-.465-2.267-.31-.504-.819-.756-1.525-.756-.701 0-1.207.252-1.517.756-.31.497-.465 1.253-.465 2.267zm6.66 0c0 1.657-.413 2.953-1.24 3.888-.827.934-1.98 1.402-3.455 1.402-.925 0-1.741-.213-2.448-.638-.706-.43-1.249-1.047-1.628-1.848-.38-.801-.569-1.736-.569-2.804 0-1.663.41-2.956 1.232-3.88.822-.922 1.977-1.383 3.464-1.383.925 0 1.74.212 2.447.637.707.425 1.25 1.035 1.629 1.83.38.796.569 1.727.569 2.796zm10.574 5.108h-2.628V8.2c0-.734-.123-1.284-.37-1.648-.247-.37-.64-.555-1.18-.555-.736 0-1.267.26-1.595.783-.327.516-.491 1.375-.491 2.576v4.79h-2.628V3.966h2.008l.353 1.302h.146a2.807 2.807 0 011.207-1.11c.517-.256 1.103-.383 1.758-.383 1.12 0 1.97.322 2.55.965.58.637.87 1.56.87 2.768v6.638zm8.497 0l-.508-1.384h-.07c-.441.588-.898.998-1.37 1.229-.465.225-1.073.337-1.826.337-.925 0-1.654-.28-2.189-.838-.528-.558-.792-1.354-.792-2.385 0-1.08.356-1.876 1.068-2.386.718-.516 1.798-.801 3.24-.856l1.672-.054v-.447c0-1.032-.5-1.548-1.5-1.548-.77 0-1.674.246-2.714.738l-.87-1.876c1.109-.613 2.338-.92 3.688-.92 1.292 0 2.283.298 2.973.893.689.595 1.034 1.5 1.034 2.713v6.784H73.19zm-.775-4.717l-1.017.037c-.764.024-1.333.17-1.706.437-.374.267-.56.673-.56 1.22 0 .783.425 1.174 1.275 1.174.609 0 1.094-.185 1.456-.555.368-.37.552-.862.552-1.475v-.838zm9.22 2.686c.46 0 1.01-.106 1.654-.318v2.066c-.655.31-1.459.465-2.412.465-1.052 0-1.819-.28-2.301-.838-.477-.564-.715-1.408-.715-2.531V6.05h-1.258V4.877l1.447-.929.759-2.149h1.68v2.167h2.697v2.085H80.49v4.908c0 .394.103.686.31.874.213.188.491.282.836.282zm7.6-6.364c-.557 0-.994.188-1.31.564-.316.37-.497.899-.543 1.585h3.688c-.011-.686-.18-1.214-.508-1.585-.328-.376-.77-.564-1.327-.564zm.37 8.577c-1.55 0-2.763-.452-3.636-1.357-.873-.904-1.31-2.185-1.31-3.842 0-1.706.402-3.023 1.207-3.952.81-.935 1.927-1.402 3.352-1.402 1.361 0 2.42.41 3.18 1.23.757.819 1.137 1.95 1.137 3.395v1.348h-6.213c.029.789.25 1.405.664 1.848.413.443.993.665 1.74.665.58 0 1.129-.064 1.646-.191a7.943 7.943 0 001.62-.61v2.148c-.46.243-.95.422-1.474.538-.522.121-1.16.182-1.913.182zm9.108-7.23h.88c.821 0 1.435-.17 1.843-.51.408-.346.612-.846.612-1.502 0-.662-.172-1.15-.517-1.466-.339-.315-.873-.473-1.603-.473h-1.215v3.951zm6.032-2.112c0 1.432-.425 2.528-1.275 3.287-.845.759-2.048 1.138-3.61 1.138h-1.147v4.735h-2.671V.834h4.024c1.528 0 2.689.349 3.481 1.047.799.692 1.198 1.727 1.198 3.105zm7.472 9.16l-.508-1.384h-.069c-.442.588-.899.998-1.37 1.229-.465.225-1.074.337-1.827.337-.925 0-1.654-.28-2.189-.838-.528-.558-.792-1.354-.792-2.385 0-1.08.356-1.876 1.068-2.386.718-.516 1.798-.801 3.24-.856l1.672-.054v-.447c0-1.032-.5-1.548-1.499-1.548-.77 0-1.675.246-2.715.738l-.87-1.876c1.109-.613 2.338-.92 3.688-.92 1.292 0 2.283.298 2.973.893.689.595 1.034 1.5 1.034 2.713v6.784h-1.836zm-.775-4.717l-1.017.037c-.764.024-1.333.17-1.706.437-.374.267-.56.673-.56 1.22 0 .783.425 1.174 1.275 1.174.609 0 1.094-.185 1.456-.555.368-.37.552-.862.552-1.475v-.838zm3.783-5.463h2.878l1.818 5.727c.155.498.261 1.087.319 1.767h.052a8.164 8.164 0 01.37-1.767l1.784-5.727h2.817l-4.075 11.482c-.374 1.062-.908 1.857-1.603 2.385-.689.528-1.497.792-2.421.792-.454 0-.899-.051-1.336-.154v-2.204c.316.08.661.119 1.034.119.465 0 .87-.152 1.215-.456.35-.297.623-.75.819-1.356l.155-.501-3.826-10.107z" fill="#fff"/><g class="icon" fill="var(--icon-color, #44AB4F)" color="#44ab4f"><path d="M21.063 5.802a.91.91 0 01.916-.903.91.91 0 01.916.903.91.91 0 01-.916.903.91.91 0 01-.916-.903zm-1.984 1.957a.91.91 0 01.916-.904.91.91 0 01.915.904.91.91 0 01-.915.903.91.91 0 01-.916-.903zm4.884-.904a.91.91 0 00-.916.904c0 .499.41.903.916.903a.91.91 0 00.916-.903.91.91 0 00-.916-.904zm-2.9 2.861a.91.91 0 01.916-.904.91.91 0 01.916.904.91.91 0 01-.916.903.91.91 0 01-.916-.903z"/><path fill-rule="evenodd" clip-rule="evenodd" d="M15.704 11.208l.003.003.002.004c1.426 2.03 3.237 3.619 6.194 3.619 3.913 0 7.097-3.14 7.097-7 0-3.855-3.19-7-7.097-7-2.175 0-3.859.918-5.1 2.189-1.215 1.243-2.068 2.788-2.909 4.313l-.084.153c-.86 1.557-1.729 3.077-2.758 4.138-.514.53-1.057.965-1.7 1.264-.645.301-1.375.46-2.255.46-3.1 0-5.592-2.459-5.592-5.517 0-3.043 2.507-5.516 5.592-5.516 2.504 0 3.992 1.398 5.237 3.266.263-.456.543-.92.84-1.39C11.764 2.293 9.96.835 7.097.835 3.184.834 0 3.974 0 7.834c0 3.854 3.19 7 7.097 7 2.155 0 3.838-.918 5.067-2.189.83-.857 1.488-1.862 2.093-2.908l.28-.485.257.497c.195.377.574 1.008.91 1.46zm.647-1.69l.003.004c1.31 2.135 2.844 3.828 5.549 3.828 3.085 0 5.593-2.473 5.593-5.516 0-3.059-2.492-5.516-5.593-5.516-1.807 0-2.97.646-4.02 1.722-.857.876-1.65 2.257-2.35 3.497l-.054.096.02.108c.047.236.207.579.366.889.166.323.354.655.484.883l.002.005z"/><path d="M6.41 5.35h1.222v1.807h1.831V8.36H7.632v1.806H6.41V8.361H4.579V7.157H6.41V5.35z"/></g></symbol><symbol viewBox="0 0 29 15" fill="none" id="logo-icon"><path d="M21.063 5.802a.91.91 0 01.916-.903.91.91 0 01.916.903.91.91 0 01-.916.903.91.91 0 01-.916-.903zm-1.984 1.957a.91.91 0 01.916-.904.91.91 0 01.915.904.91.91 0 01-.915.903.91.91 0 01-.916-.903zm4.884-.904a.91.91 0 00-.916.904c0 .499.41.903.916.903a.91.91 0 00.916-.903.91.91 0 00-.916-.904zm-2.9 2.861a.91.91 0 01.916-.904.91.91 0 01.916.904.91.91 0 01-.916.903.91.91 0 01-.916-.903z" fill="#44AB4F"/><path fill-rule="evenodd" clip-rule="evenodd" d="M15.704 11.208l.003.003.002.004c1.426 2.03 3.237 3.619 6.194 3.619 3.913 0 7.097-3.14 7.097-7 0-3.855-3.19-7-7.097-7-2.175 0-3.859.918-5.1 2.189-1.215 1.243-2.068 2.788-2.909 4.313l-.084.153c-.86 1.557-1.729 3.077-2.758 4.138-.514.53-1.057.965-1.7 1.264-.645.301-1.375.46-2.255.46-3.1 0-5.592-2.459-5.592-5.517 0-3.043 2.507-5.516 5.592-5.516 2.504 0 3.992 1.398 5.237 3.266.263-.456.543-.92.84-1.39C11.764 2.293 9.96.835 7.097.835 3.184.834 0 3.974 0 7.834c0 3.854 3.19 7 7.097 7 2.155 0 3.838-.918 5.067-2.189.83-.857 1.488-1.862 2.093-2.908l.28-.485.257.497c.195.377.574 1.008.91 1.46zm.647-1.69l.003.004c1.31 2.135 2.844 3.828 5.549 3.828 3.085 0 5.593-2.473 5.593-5.516 0-3.059-2.492-5.516-5.593-5.516-1.807 0-2.97.646-4.02 1.722-.857.876-1.65 2.257-2.35 3.497l-.054.096.02.108c.047.236.207.579.366.889.166.323.354.655.484.883l.002.005z" fill="#44AB4F"/><path d="M6.41 5.35h1.222v1.807h1.831V8.36H7.632v1.806H6.41V8.361H4.579V7.157H6.41V5.35z" fill="#44AB4F"/></symbol><symbol viewBox="0 0 37 25" fill="none" id="mastercard"><path opacity=".3" fill-rule="evenodd" clip-rule="evenodd" d="M2 .834a2 2 0 00-2 2v20a2 2 0 002 2h33a2 2 0 002-2v-20a2 2 0 00-2-2H2zm15.965 18.664a7.486 7.486 0 01-.204-.157c-1.965-1.641-3.092-4.013-3.092-6.507 0-2.494 1.131-4.866 3.107-6.503.04-.045.093-.087.148-.131l.037-.03a8.56 8.56 0 00-4.618-1.336c-4.608 0-8.343 3.583-8.343 8 0 4.42 3.735 8.001 8.344 8a8.57 8.57 0 004.62-1.336zM19.039 6.17a8.555 8.555 0 014.618-1.336c4.608 0 8.343 3.584 8.343 8 0 4.42-3.735 8.001-8.344 8a8.565 8.565 0 01-4.62-1.336c.068-.051.138-.104.203-.157 1.965-1.644 3.092-4.014 3.092-6.507 0-2.494-1.131-4.866-3.107-6.503-.04-.045-.093-.087-.148-.131a6.645 6.645 0 01-.037-.03zm-.854.629c.102-.088.207-.169.315-.25.108.081.214.163.315.25 1.76 1.466 2.87 3.624 2.87 6.035 0 2.413-1.112 4.57-2.87 6.037-.102.086-.207.17-.315.25a6.296 6.296 0 01-.315-.25c-1.76-1.467-2.87-3.624-2.87-6.036 0-2.412 1.11-4.57 2.87-6.036z" fill="#fff"/></symbol><symbol viewBox="0 0 37 24" fill="none" id="mobile"><path opacity=".3" fill-rule="evenodd" clip-rule="evenodd" d="M2 0a2 2 0 00-2 2v20a2 2 0 002 2h33a2 2 0 002-2V2a2 2 0 00-2-2H2zm15.868 15.8h-5.76V6.84h8.96v1.92h1.28v-3.2A2.56 2.56 0 0019.788 3h-6.4a2.56 2.56 0 00-2.56 2.56v12.8a2.56 2.56 0 002.56 2.56h4.48V19h-2.56v-1.28h2.56V15.8zm5.76-6.4h-3.2a1.92 1.92 0 00-1.92 1.92V19a1.92 1.92 0 001.92 1.92h3.2V9.4zm1.28 11.52V9.4a1.92 1.92 0 011.92 1.92V19a1.92 1.92 0 01-1.92 1.92zm-4.48-4.48h1.28V19h-1.28v-2.56z" fill="#fff"/></symbol><symbol viewBox="0 0 38 24" fill="none" id="payeer"><path opacity=".3" fill-rule="evenodd" clip-rule="evenodd" d="M.5 2a2 2 0 012-2h33a2 2 0 012 2v20a2 2 0 01-2 2h-33a2 2 0 01-2-2V2zm4.551 11.068v.797c.001.59.002 1.258 0 1.415 0 .144-.068.213-.207.216a57.27 57.27 0 01-.829 0c-.141 0-.204-.07-.204-.216V8.708c0-.142.06-.204.2-.204.237 0 .474 0 .712-.002a64.209 64.209 0 011.7.007c1.158.025 2.02.9 2.07 2.079.027.627-.09 1.21-.49 1.706-.404.503-.943.746-1.574.771-.348.015-1.056.007-1.298.004l-.08-.001zm.005-1.044h.384c.248-.001.492-.002.738 0a.924.924 0 00.765-.367c.302-.38.38-.816.258-1.283-.138-.53-.533-.828-1.07-.828H5.06c-.003.83-.003 1.647-.003 2.478zm7.67 3.241c.064.159.164.248.344.233.113-.01.585-.002.708 0 .229 0 .302-.111.207-.325-.965-2.163-1.928-4.328-2.891-6.493-.054-.121-.127-.166-.254-.163-.122.002-.175.071-.222.173a3007.6 3007.6 0 01-1.49 3.312l-.056.126-.004.008-.087.195c-.608 1.35-1.158 2.571-1.283 2.853-.09.198-.015.312.197.312h.707c.213 0 .28-.045.361-.243l.07-.169.038-.093c.099-.24.197-.479.292-.72.034-.087.075-.124.175-.124.843.005 1.683.002 2.525 0h.084c.09 0 .136.022.17.111.09.23.184.459.279.688l.002.005.007.018.007.016.115.28zM9.89 13.092h1.907c-.322-.719-.643-1.439-.963-2.16-.316.72-.63 1.44-.944 2.16zm7.686-4.427c-.493.745-.987 1.489-1.485 2.23l-.274-.41h-.001l-.155-.232c-.355-.532-.712-1.064-1.069-1.595-.039-.057-.112-.129-.172-.131a14.912 14.912 0 00-1-.006c-.135.003-.203.135-.15.26.012.03.608.942 1.212 1.867l.002.003.09.137.82 1.258a.39.39 0 01.061.206c.002 1 .002 1.999.002 2.998 0 .184.059.246.24.246h.743c.205 0 .26-.057.26-.263.002-.978 0-1.957-.002-2.937a.502.502 0 01.088-.297c.695-1.043 1.39-2.086 2.082-3.13.054-.08.098-.156.049-.253-.049-.1-.142-.1-.232-.1h-.131l-.107.001c-.197.001-.394.002-.59-.003a.294.294 0 00-.281.151zm15.252 4.128a15.371 15.371 0 00-.044-.09 2.61 2.61 0 01.14-.07c.99-.484 1.413-1.444 1.225-2.484-.176-.977-.988-1.641-1.982-1.646a244.96 244.96 0 00-1.78-.002l-.89.002c-.168 0-.224.06-.224.231v6.504c0 .191.05.241.239.241h.707c.231 0 .265-.035.265-.273 0-.764 0-1.525-.002-2.289 0-.109.032-.147.139-.144.26.008.52.008.78 0 .112-.002.166.04.212.14.295.628.595 1.255.894 1.882l.252.53.005.01c.032.071.065.144.163.144h.256c.256 0 .513.001.769-.002.114-.003.18-.102.15-.217a.484.484 0 00-.055-.124l-1.17-2.248-.049-.095zm-2.243-1.032h-.081V9.53h1.433c.505 0 .861.279.995.779.127.47-.043 1.002-.41 1.28a.796.796 0 01-.497.172c-.394-.002-1.182 0-1.44 0zm-9.828-.274V9.53c.064 0 1.882 0 2.743.002.195 0 .247-.052.247-.246V8.79c0-.241-.042-.284-.274-.284h-3.667c-.239 0-.28.04-.28.289 0 2.139.002 6.537.005 6.553.017.103.08.15.2.152.07.002 1.247.001 2.357 0h1.422c.183 0 .239-.057.239-.244v-.522c0-.214-.047-.261-.256-.261H20.76v-1.957h2.296c.169 0 .227-.06.227-.232v-.547c0-.191-.056-.249-.249-.249h-2.277zm3.667-2.738v3.246c-.001 1.083 0 2.164.002 3.243 0 .219.04.259.256.259h3.73c.171 0 .223-.055.223-.231v-.523c0-.239-.034-.273-.264-.273-.87 0-1.738 0-2.609.002-.092 0-.129-.02-.129-.122.005-.572.005-1.144 0-1.716 0-.104.04-.122.13-.122.363.003 1.823.003 2.194 0 .158 0 .214-.06.214-.216v-.523c0-.253-.034-.288-.29-.288h-.496c-.537 0-1.076-.001-1.613.003-.107 0-.139-.03-.139-.14.004-.41.003-.82.003-1.23v-.411c0-.09 0-.135.022-.157.022-.022.067-.022.155-.022h2.597c.176 0 .225-.052.225-.23V8.74c0-.189-.049-.239-.24-.239h-3.73c-.197 0-.241.045-.241.25z" fill="#fff"/></symbol><symbol viewBox="0 0 37 24" fill="none" id="paypal"><path opacity=".3" fill-rule="evenodd" clip-rule="evenodd" d="M2 0a2 2 0 00-2 2v20a2 2 0 002 2h33a2 2 0 002-2V2a2 2 0 00-2-2H2zm10.544 17.836h2.879l.7-4.442a.665.665 0 01.656-.562h1.369c2.686 0 4.79-1.092 5.404-4.248.02-.093.034-.184.049-.273.182-1.167-.002-1.961-.633-2.68-.695-.792-1.95-1.131-3.556-1.131h-4.663a.668.668 0 00-.659.563l-1.941 12.31a.4.4 0 00.395.463zm11.34-9.351c.14.097.268.21.38.338.595.677.71 1.64.486 2.794-.538 2.762-2.378 3.717-4.728 3.717h-.363a.583.583 0 00-.577.492c-.017.074-.134.818-.251 1.57-.12.761-.24 1.53-.259 1.611a.583.583 0 01-.576.493H15.57a.349.349 0 01-.346-.404l.15-.948h.316l.742-4.704a.351.351 0 01.347-.3h1.369c3.208 0 5.13-1.514 5.711-4.5a2.795 2.795 0 00.026-.159z" fill="#fff"/></symbol><symbol viewBox="0 0 58 58" id="picture"><path d="M57 6H1a1 1 0 00-1 1v44a1 1 0 001 1h56a1 1 0 001-1V7a1 1 0 00-1-1zm-1 44H2V8h54v42z"/><path d="M16 28.138a5.575 5.575 0 005.569-5.568c0-3.072-2.498-5.57-5.569-5.57s-5.569 2.498-5.569 5.569A5.575 5.575 0 0016 28.138zM16 19c1.968 0 3.569 1.602 3.569 3.569S17.968 26.138 16 26.138s-3.569-1.601-3.569-3.568S14.032 19 16 19zM7 46c.234 0 .47-.082.66-.249l16.313-14.362L34.275 41.69a.999.999 0 101.414-1.414l-4.807-4.807 9.181-10.054 11.261 10.323a1 1 0 001.351-1.475l-12-11a1.031 1.031 0 00-.72-.262 1.002 1.002 0 00-.694.325l-9.794 10.727-4.743-4.743a1 1 0 00-1.368-.044L6.339 44.249A1 1 0 007 46z"/></symbol><symbol viewBox="0 0 37 25" fill="none" id="qiwi"><path opacity=".3" fill-rule="evenodd" clip-rule="evenodd" d="M2 .834a2 2 0 00-2 2v20a2 2 0 002 2h33a2 2 0 002-2v-20a2 2 0 00-2-2H2zm7.31 11.45a8.45 8.45 0 018.45-8.45 8.45 8.45 0 018.45 8.45 8.502 8.502 0 01-1.192 4.335c-.025.038-.086.026-.098-.023-.295-2.076-1.56-3.219-3.402-3.562-.16-.025-.184-.124.024-.148.565-.05 1.364-.037 1.782.036a5.592 5.592 0 00-5.552-6.238 5.593 5.593 0 00-5.59 5.587 5.594 5.594 0 005.59 5.589h.258a7.54 7.54 0 01-.111-1.51c.012-.345.086-.394.233-.124.775 1.339 1.88 2.542 4.041 3.022 1.768.392 3.537.847 5.441 3.266.172.21-.086.43-.282.258-1.94-1.72-3.71-2.284-5.319-2.284-.967.007-1.768.077-2.494.14-.63.055-1.203.105-1.78.105a8.45 8.45 0 01-8.45-8.45zm14.36 3.512a.247.247 0 01.14-.026l.036.006c.026.005.053.009.079.02.32.124.443.602.467.81.049.381-.061.529-.184.529s-.296-.148-.48-.442c-.183-.295-.258-.626-.16-.799a.248.248 0 01.103-.098zm-2.006 1.56a.477.477 0 01.394-.171c.197 0 .418.085.614.257.382.319.492.688.295.959a.646.646 0 01-.503.22.88.88 0 01-.578-.208c-.344-.296-.442-.787-.222-1.057z" fill="#fff"/></symbol><symbol viewBox="0 0 37 24" fill="none" id="samsungpay"><path opacity=".3" fill-rule="evenodd" clip-rule="evenodd" d="M2 0a2 2 0 00-2 2v20a2 2 0 002 2h33a2 2 0 002-2V2a2 2 0 00-2-2H2zm10.761 17.756l-.757 1.903h.844l2.148-5.447h-.872l-.951 2.51-1.002-2.51h-.888l1.478 3.544zm-5.584-1.678c0 1.217.904 1.939 1.772 1.939a1.468 1.468 0 001.172-.561v.484h.83v-3.728h-.83v.446c-.259-.318-.686-.521-1.16-.521-.911 0-1.784.705-1.784 1.941zM3.79 13.291v4.65h.84V16.61h.697c.935 0 1.624-.74 1.624-1.664 0-.918-.687-1.655-1.618-1.655H3.79zm6.37 2.777c0 .643-.462 1.16-1.079 1.16-.615 0-1.089-.51-1.089-1.16a1.158 1.158 0 01.31-.812 1.06 1.06 0 01.779-.337c.617 0 1.08.519 1.08 1.15zm-4.892-.264H4.63v-1.71h.64a.785.785 0 01.597.239.84.84 0 01.242.613c0 .478-.34.859-.841.859zM3.785 9.39c0 .97.74 1.262 1.53 1.262.76 0 1.385-.267 1.484-.994a2.23 2.23 0 00-.002-.713c-.103-.524-.675-.836-1.165-1.104-.362-.197-.679-.37-.73-.586a.57.57 0 01-.002-.229c.03-.14.12-.294.384-.294.245 0 .392.156.392.393v.27h1.047v-.306c0-.948-.823-1.092-1.417-1.092-.748 0-1.359.253-1.47.963-.034.195-.03.394.01.588.104.508.637.81 1.116 1.08.358.202.685.387.778.628a.576.576 0 01.006.32c-.034.146-.129.294-.408.294-.263 0-.422-.156-.422-.393l-.003-.423H3.785v.336zm13.693-.008c0 .96.731 1.248 1.513 1.248h.002c.752 0 1.372-.265 1.47-.985a2.152 2.152 0 00-.003-.707c-.101-.518-.666-.827-1.151-1.092-.359-.196-.674-.368-.724-.582a.57.57 0 01-.006-.224c.03-.14.124-.291.384-.291.244 0 .386.154.386.389v.269h1.038V7.1c0-.938-.813-1.084-1.402-1.084-.74 0-1.346.252-1.457.955-.034.192-.03.39.01.581.103.504.632.803 1.105 1.072.354.2.678.384.77.622a.574.574 0 01.006.318c-.034.143-.127.291-.406.291-.26 0-.418-.158-.418-.393v-.416h-1.117v.334zm3.998.153c.073.812.696 1.078 1.469 1.078.773 0 1.391-.265 1.465-1.077a3.83 3.83 0 00.01-.284V6.13h-1.063v3.219a.947.947 0 01-.01.165.38.38 0 01-.402.314.384.384 0 01-.406-.314c-.01-.047-.01-.11-.01-.165V6.13h-1.063v3.121c0 .095.003.189.01.283zm8.766-.042c.07.793.732 1.073 1.477 1.073.746 0 1.41-.28 1.479-1.073.012-.144.016-.205.016-.286V8.039h-1.491v.634h.432v.63a.947.947 0 01-.01.165c-.02.117-.124.317-.428.317s-.412-.2-.432-.317a1.15 1.15 0 01-.01-.165V7.316c0-.07.005-.138.018-.206.022-.106.111-.317.416-.317.323 0 .404.222.424.317.012.064.012.165.012.165v.245h1.06v-.145s.003-.148-.01-.287c-.078-.816-.73-1.073-1.476-1.073-.745 0-1.38.26-1.475 1.073a2.96 2.96 0 00-.02.287v1.83c.002.095.008.192.018.287zM8.288 6.13l-.78 4.353h1.137l.576-3.947.024-.003.56 3.95h1.13L10.16 6.13H8.288zm3.578 0l-.09 4.353 1.052.001.026-3.91h.022l.703 3.909h1.067l.702-3.91h.026l.024 3.91h1.051l-.092-4.353h-1.715l-.518 3.33H14.1l-.517-3.33h-1.716zm13.726 0v4.307h1.035l-.058-3.535h.022l1.041 3.535h1.497V6.13h-1.043l.058 3.415h-.022l-.97-3.415h-1.56z" fill="#fff"/></symbol><symbol viewBox="0 0 233 233" id="steam"><path fill="var(--icon-background-color, url(#steam_a))" d="M4.891 150.01C19.284 198.02 63.807 233 116.501 233c64.34 0 116.5-52.16 116.5-116.5 0-64.341-52.16-116.5-116.5-116.5C54.761 0 4.241 48.029.251 108.76c7.54 12.66 10.481 20.49 4.641 41.25z"/><path fill="var(--icon-color, #fff)" d="M110.5 87.322c0 .196 0 .392.01.576L82.002 129.31c-4.618-.21-9.252.6-13.646 2.41a31.698 31.698 0 00-5.455 2.88L.302 108.83s-1.448 23.83 4.588 41.59l44.254 18.26c2.222 9.93 9.034 18.64 19.084 22.83 16.443 6.87 35.402-.96 42.242-17.41 1.78-4.3 2.61-8.81 2.49-13.31l40.79-29.15c.33.01.67.02 1 .02 24.41 0 44.25-19.9 44.25-44.338C199 62.882 179.16 43 154.75 43c-24.4 0-44.25 19.882-44.25 44.322zm-6.84 83.918c-5.294 12.71-19.9 18.74-32.596 13.45-5.857-2.44-10.279-6.91-12.83-12.24l14.405 5.97c9.363 3.9 20.105-.54 23.997-9.9 3.904-9.37-.525-20.13-9.883-24.03l-14.891-6.17c5.746-2.18 12.278-2.26 18.381.28 6.153 2.56 10.927 7.38 13.457 13.54s2.52 12.96-.04 19.1m51.09-54.38c-16.25 0-29.48-13.25-29.48-29.538 0-16.275 13.23-29.529 29.48-29.529 16.26 0 29.49 13.254 29.49 29.529 0 16.288-13.23 29.538-29.49 29.538m-22.09-29.583c0-12.253 9.92-22.191 22.14-22.191 12.23 0 22.15 9.938 22.15 22.191 0 12.254-9.92 22.183-22.15 22.183-12.22 0-22.14-9.929-22.14-22.183z"/></symbol><symbol viewBox="0 0 41 41" fill="none" id="telegram"><g clip-path="url(#telegram_clip0)"><path d="M20.432 40.855c11.052 0 20.01-8.96 20.01-20.01 0-11.052-8.958-20.011-20.01-20.011C9.381.834.422 9.793.422 20.844c0 11.052 8.959 20.01 20.01 20.01z" fill="url(#telegram_paint0_linear)"/><path d="M28.068 12.689s2.082-.81 1.909 1.156c-.058.81-.579 3.644-.984 6.709l-1.388 9.08s-.115 1.33-1.156 1.561c-1.041.232-2.603-.81-2.892-1.04-.231-.174-4.337-2.777-5.783-4.05-.405-.346-.868-1.04.057-1.85l6.073-5.783c.694-.694 1.388-2.313-1.504-.347l-8.096 5.494s-.926.578-2.66.058l-3.76-1.157s-1.388-.867.983-1.735c5.784-2.718 12.897-5.494 19.201-8.096z" fill="#fff"/></g></symbol><symbol class="s" viewBox="0 0 100 100" id="triangle"><path fill="currentColor" stroke="var(--icon-stroke, #000)" stroke-width="var(--icon-stroke-width, 1)" d="M50 15l40 75H10z"/></symbol><symbol viewBox="0 0 350 347" fill="none" id="trovo"><path fill-rule="evenodd" clip-rule="evenodd" d="M221.557 249.572c1.89 18.11 21.32 24.5 27.17 14.76 5.58-9.3-5.9-7.59-3.65-19.63 2.07-11.01 23.42-13.96 29.54 4.81 3.69 11.3.05 20.8-6.45 29.27-17.63 22.94-64.47 11.73-72.11-18.62-3.62-14.37-4.12-32.41 1.61-44.97 7.71-16.89 22.3-29.24 40.19-34 19.71-5.25 45-3.99 65.56-2.26 28.57 2.4 19.52.38 34.55-55.23 4.06-15.02 6.72-29.77 11.05-44.69.9-3.1 1.26-6.21-.43-9.21-3.12-5.55-12.29-3.79-19.78-3.79-11.86 0-54.43.47-77.03.19-7.27-.09-16.12 2.15-15.67-7.62.23-4.86 5.74-21.46 7.47-28.69 2.01-8.42 4.8-20.28 3.58-23.74-3.1-8.81-22.45-5.57-32.34-5.57h-36.99c-52.11 0-51.89-4.6-58.01 17.07-2.88 10.19-4.85 19.12-7.21 29.54-5.01 22.05 1.88 17.83-57.77 17.83-10.66 0-26.44-2.45-30.81 5.73-1.85 3.45-6.72 23.46-10.38 39.65-3.58 15.85-8.82 34.78-11.42 50.19-2.1 12.43-6.91 21.94 10.59 21.89l56.02-.04c19.86-.16 15.1 4.63 12.53 21.45-2.5 16.31-3.71 39.14.54 54.98 7.84 29.18 25.33 53.1 49.81 68.42 19.08 11.94 42.65 18.7 65.1 19.09 153.48 2.72 136.74-164.38 49.51-137.77-19.67 6.01-26.84 21.14-24.77 40.96z" fill="var(--icon-color, #31C17B)"/></symbol><symbol viewBox="0 0 57 60" fill="none" id="twitch"><path d="M40.978 51.497h-11.36l-7.56 7.618h-7.563v-7.618H.62v-40.54L4.394.812h51.719v35.483L40.978 51.498zm10.102-17.72V5.88H9.44v36.747h11.359v7.607l7.561-7.596h13.877l8.843-8.86z" fill="var(--icon-color, #9146ff)"/><path d="M37.194 16.025V31.24h5.045V16.025h-5.045zM23.317 31.227h5.045V16.025h-5.045v15.202z" fill="var(--icon-color, #9146ff)"/></symbol><symbol viewBox="0 0 37 25" fill="none" id="visa"><g opacity=".3" fill="#fff"><path d="M29.38 14.298zm0 0h2.185l-.61-2.88-.177-.86c-.07.196-.166.455-.24.653-.068.18-.116.311-.11.298 0 0-.83 2.214-1.048 2.789z"/><path fill-rule="evenodd" clip-rule="evenodd" d="M1.973.834h33.054c1.09 0 1.973.912 1.973 2.038v19.924c0 1.125-.884 2.038-1.973 2.038H1.973C.883 24.834 0 23.922 0 22.796V2.872C0 1.747.884.834 1.973.834zm3.035 8.328l2.34 8.664 2.786-.004 4.144-9.956H11.49L8.912 14.67l-.274-1.383-.923-4.584c-.16-.631-.622-.82-1.194-.842H2.277l-.034.208c1.033.258 1.956.63 2.765 1.094zm8.69 8.672h2.63l1.648-9.975h-2.633l-1.646 9.975zm4.279-.384c.615.278 1.752.52 2.932.532 2.767 0 4.564-1.337 4.584-3.408.01-1.134-.691-1.998-2.21-2.71-.92-.461-1.484-.77-1.478-1.237 0-.414.477-.858 1.508-.858.86-.013 1.484.18 1.97.383l.236.115.357-2.162a6.607 6.607 0 00-2.36-.42c-2.6 0-4.433 1.354-4.448 3.293-.015 1.433 1.308 2.232 2.306 2.71 1.025.489 1.37.8 1.364 1.237-.006.669-.818.974-1.575.974-1.053 0-1.613-.151-2.477-.523l-.34-.159-.369 2.233zm14.017-1.107c.078.349.32 1.494.32 1.494h2.443L32.626 7.87h-2.034c-.63 0-1.102.177-1.378.827l-3.91 9.141h2.764s.452-1.229.554-1.499l1.52.002 1.852.003z"/></g></symbol><symbol viewBox="0 0 41 41" fill="none" id="vk"><g clip-path="url(#vk_clip0)"><path d="M20.432 40.855c11.052 0 20.01-8.96 20.01-20.01 0-11.052-8.958-20.011-20.01-20.011C9.381.834.422 9.793.422 20.844c0 11.052 8.959 20.01 20.01 20.01z" fill="#2787F5"/><path fill-rule="evenodd" clip-rule="evenodd" d="M10.338 13.836H7.422c-.833 0-1 .4-1 .834 0 .766 1 4.6 4.6 9.666 2.416 3.45 5.816 5.334 8.9 5.334 1.85 0 2.083-.417 2.083-1.134V25.92c0-.834.167-1 .767-1 .433 0 1.167.216 2.9 1.883 1.983 1.983 2.3 2.867 3.416 2.867h2.917c.834 0 1.25-.417 1-1.234-.25-.833-1.2-2-2.45-3.416-.666-.817-1.7-1.667-2-2.1-.433-.567-.333-.817 0-1.3 0 0 3.55-5 3.917-6.717.183-.617 0-1.067-.884-1.067h-2.916a1.267 1.267 0 00-1.267.834s-1.5 3.6-3.583 5.95c-.683.683-1 .9-1.367.9-.166 0-.45-.217-.45-.834v-5.783c0-.733-.216-1.067-.833-1.067h-4.584c-.466 0-.75.334-.75.667 0 .7 1.067.867 1.167 2.833v4.3c0 .95-.166 1.117-.533 1.117-1 0-3.4-3.633-4.834-7.783-.266-.8-.55-1.134-1.3-1.134z" fill="#fff"/></g></symbol><symbol viewBox="0 0 85 50" fill="none" id="vk_text"><path d="M41.613 49.742c2.713 0 8.159.956 8.093-3.287 0 0-.1-6.904 3.062-7.921 3.118-1.002 7.12 6.673 11.363 9.624 2.276 1.584 5.647 1.584 5.647 1.584h11.344s5.935-.371 3.12-5.1c-.23-.386-1.639-3.498-8.435-9.89-7.114-6.692-6.16-5.609 2.409-17.183 5.218-7.048 7.304-11.351 6.652-13.194-.523-1.48-4.46-1.292-4.46-1.292H67.636c-1.253-.067-2.257.618-2.776 1.764-1.29 3.477-9.46 22.506-13.61 19.79-2.163-1.417-1.623-5.69-1.623-8.727 0-9.486 1.42-13.44-2.764-14.464-1.389-.34-2.411-.564-5.963-.601-4.558-.047-8.415.014-10.6 1.098-1.453.722-2.574 2.328-1.89 2.42.843.115 2.755.524 3.769 1.921 2.364 3.26 2.55 16.729-.493 18.41C26.93 27.323 19.428 8.983 17.97 5.248c-.519-1.29-1.142-2.245-3.015-2.245l-12.138.08C.278 3.083-.475 4.097.279 6.13c0 0 9.502 22.53 20.263 33.885 9.868 10.41 21.071 9.728 21.071 9.728z" fill="#fff"/></symbol><symbol viewBox="0 0 37 24" fill="none" id="webmoney"><path opacity=".3" fill-rule="evenodd" clip-rule="evenodd" d="M2 0a2 2 0 00-2 2v20a2 2 0 002 2h33a2 2 0 002-2V2a2 2 0 00-2-2H2zm19.964 4.92a8.07 8.07 0 00-3.502-.798c-4.4 0-7.977 3.552-7.962 7.871 0 4.35 3.577 7.885 7.977 7.885a8.027 8.027 0 003.928-1.022c.38-.21.73-.452 1.05-.693l-1.614-1.806-1.856 1.685-3.136-3.446.867-.752-2.192-2.423.867-.753-2.222-2.423L17.64 5.16l1.112 1.189 1.887-1.655 1.096 1.129.73-.648a7.82 7.82 0 00-.501-.256zm-3.06 4.906L17 11.51l1.705 1.881 1.904-1.685-1.706-1.881zm1.339 3.236l-1.888 1.7 1.705 1.866 1.904-1.685-1.721-1.881zM17.548 6.62l-1.902 1.686 1.704 1.88 1.904-1.685-1.706-1.88zm3-.482l-1.416 1.264 1.279 1.415 1.416-1.279-1.28-1.4zm2.527 5.794l-1.416 1.265 1.279 1.415 1.416-1.265-1.28-1.415zm1.248 2.845l-1.416 1.264 1.279 1.415 1.415-1.28-1.278-1.399zm.107-6.08l-.944.843.852.933.944-.843-.852-.933zm-1.218-2.8l-.944.858.852.933.945-.842-.853-.948zm2.42 5.584l-.944.843.853.933.959-.843-.868-.933zm-3.775-2.513l-1.416 1.264 1.28 1.4 1.415-1.265-1.279-1.4z" fill="#fff"/></symbol><symbol viewBox="0 0 480 520" fill="none" id="yandex"><path d="M434 4708c18-40 309-669 646-1398 745-1612 740-1599 816-1863 80-277 104-519 104-1043V30h802l-5 498c-3 278-10 534-16 582-46 351-121 618-275 977-60 143-98 225-761 1671l-469 1022H401l33-72zm2587-1066c-272-625-496-1143-499-1150-3-9 85-12 407-12h410l15 28c8 15 216 486 464 1047 247 561 470 1066 495 1123l46 102h-422l-422-1-494-1137z" transform="matrix(.1 0 0 -.1 0 500)" fill="#fc3f1d"/></symbol><symbol viewBox="0 0 37 24" fill="none" id="yoomoney"><path opacity=".3" fill-rule="evenodd" clip-rule="evenodd" d="M0 2a2 2 0 012-2h33a2 2 0 012 2v20a2 2 0 01-2 2H2a2 2 0 01-2-2V2zm21.543 2.5c-4.153 0-7.456 3.37-7.456 7.5 0 4.177 3.35 7.5 7.456 7.5 4.105 0 7.456-3.37 7.456-7.5s-3.35-7.5-7.456-7.5zm0 10.3c-1.51 0-2.784-1.281-2.784-2.8s1.274-2.8 2.784-2.8c1.51 0 2.784 1.281 2.784 2.8-.047 1.519-1.274 2.8-2.784 2.8zm-7.503 2.801V6.684H8L11.398 17.6h2.642z" fill="#fff"/></symbol><symbol viewBox="0 0 55 39" fill="none" id="youtube"><path fill="#fff" d="M14.422 5.834h26v26h-26z"/><path d="M53.294 6.78a6.788 6.788 0 00-4.775-4.81C44.31.835 27.422.835 27.422.835s-16.886 0-21.098 1.137A6.788 6.788 0 001.55 6.78C.422 11.022.422 19.872.422 19.872s0 8.851 1.128 13.093c.621 2.34 2.451 4.107 4.774 4.732 4.212 1.137 21.098 1.137 21.098 1.137s16.886 0 21.097-1.137c2.324-.625 4.153-2.392 4.775-4.732 1.128-4.242 1.128-13.093 1.128-13.093s0-8.85-1.128-13.092zM21.899 27.908V11.837l14.114 8.036-14.114 8.035z" fill="#EC3324"/></symbol><linearGradient id="google-play_paint0_linear" x1="21.801" y1="9.543" x2="5.019" y2="26.325" gradientUnits="userSpaceOnUse"><stop stop-color="#00A0FF"/><stop offset=".007" stop-color="#00A1FF"/><stop offset=".26" stop-color="#00BEFF"/><stop offset=".512" stop-color="#00D2FF"/><stop offset=".76" stop-color="#00DFFF"/><stop offset="1" stop-color="#00E3FF"/></linearGradient><linearGradient id="google-play_paint1_linear" x1="33.833" y1="20.835" x2="9.638" y2="20.835" gradientUnits="userSpaceOnUse"><stop stop-color="#FFE000"/><stop offset=".409" stop-color="#FFBD00"/><stop offset=".775" stop-color="orange"/><stop offset="1" stop-color="#FF9C00"/></linearGradient><linearGradient id="google-play_paint2_linear" x1="24.828" y1="23.129" x2="2.07" y2="45.887" gradientUnits="userSpaceOnUse"><stop stop-color="#FF3A44"/><stop offset="1" stop-color="#C31162"/></linearGradient><linearGradient id="google-play_paint3_linear" x1="7.297" y1="1.01" x2="17.46" y2="11.173" gradientUnits="userSpaceOnUse"><stop stop-color="#32A071"/><stop offset=".069" stop-color="#2DA771"/><stop offset=".476" stop-color="#15CF74"/><stop offset=".801" stop-color="#06E775"/><stop offset="1" stop-color="#00F076"/></linearGradient><linearGradient id="steam_a" x2="50%" x1="50%" y2="100%"><stop stop-color="#111D2E" offset="0"/><stop stop-color="#051839" offset=".212"/><stop stop-color="#0A1B48" offset=".407"/><stop stop-color="#132E62" offset=".581"/><stop stop-color="#144B7E" offset=".738"/><stop stop-color="#136497" offset=".873"/><stop stop-color="#1387B8" offset="1"/></linearGradient><linearGradient id="telegram_paint0_linear" x1="27.025" y1="7.196" x2="17.194" y2="30.907" gradientUnits="userSpaceOnUse"><stop stop-color="#2AABEE"/><stop offset="1" stop-color="#229ED9"/></linearGradient><clipPath id="facebook_clip0"><path fill="#fff" transform="translate(.422 .834)" d="M0 0h40v40H0z"/></clipPath><clipPath id="telegram_clip0"><path fill="#fff" transform="translate(.422 .834)" d="M0 0h40v40H0z"/></clipPath><clipPath id="vk_clip0"><path fill="#fff" transform="translate(.422 .834)" d="M0 0h40v40H0z"/></clipPath><style>.sprite-symbol-usage{display:none}.sprite-symbol-usage:target{display:inline}</style></defs><use id="advcash-usage" xlink:href="#advcash" class="sprite-symbol-usage"/><use id="app-store-usage" xlink:href="#app-store" class="sprite-symbol-usage"/><use id="app-store-dark-usage" xlink:href="#app-store-dark" class="sprite-symbol-usage"/><use id="applepay-usage" xlink:href="#applepay" class="sprite-symbol-usage"/><use id="bars-usage" xlink:href="#bars" class="sprite-symbol-usage"/><use id="card-usage" xlink:href="#card" class="sprite-symbol-usage"/><use id="close-usage" xlink:href="#close" class="sprite-symbol-usage"/><use id="designer-usage" xlink:href="#designer" class="sprite-symbol-usage"/><use id="facebook-usage" xlink:href="#facebook" class="sprite-symbol-usage"/><use id="google-play-usage" xlink:href="#google-play" class="sprite-symbol-usage"/><use id="google-play-dark-usage" xlink:href="#google-play-dark" class="sprite-symbol-usage"/><use id="googlepay-usage" xlink:href="#googlepay" class="sprite-symbol-usage"/><use id="logo-usage" xlink:href="#logo" class="sprite-symbol-usage"/><use id="logo-icon-usage" xlink:href="#logo-icon" class="sprite-symbol-usage"/><use id="mastercard-usage" xlink:href="#mastercard" class="sprite-symbol-usage"/><use id="mobile-usage" xlink:href="#mobile" class="sprite-symbol-usage"/><use id="payeer-usage" xlink:href="#payeer" class="sprite-symbol-usage"/><use id="paypal-usage" xlink:href="#paypal" class="sprite-symbol-usage"/><use id="picture-usage" xlink:href="#picture" class="sprite-symbol-usage"/><use id="qiwi-usage" xlink:href="#qiwi" class="sprite-symbol-usage"/><use id="samsungpay-usage" xlink:href="#samsungpay" class="sprite-symbol-usage"/><use id="steam-usage" xlink:href="#steam" class="sprite-symbol-usage"/><use id="telegram-usage" xlink:href="#telegram" class="sprite-symbol-usage"/><use id="triangle-usage" xlink:href="#triangle" class="sprite-symbol-usage"/><use id="trovo-usage" xlink:href="#trovo" class="sprite-symbol-usage"/><use id="twitch-usage" xlink:href="#twitch" class="sprite-symbol-usage"/><use id="visa-usage" xlink:href="#visa" class="sprite-symbol-usage"/><use id="vk-usage" xlink:href="#vk" class="sprite-symbol-usage"/><use id="vk_text-usage" xlink:href="#vk_text" class="sprite-symbol-usage"/><use id="webmoney-usage" xlink:href="#webmoney" class="sprite-symbol-usage"/><use id="yandex-usage" xlink:href="#yandex" class="sprite-symbol-usage"/><use id="yoomoney-usage" xlink:href="#yoomoney" class="sprite-symbol-usage"/><use id="youtube-usage" xlink:href="#youtube" class="sprite-symbol-usage"/></svg>